%
M48
M72
T01C0.03200
T02C0.03543
T03C0.04000
T04C0.04400
T05C0.13000
%
T01
X134300Y56300
X144300Y46300
X154300Y56300
T02
X167300Y89800
X167300Y119800
X86643Y64800
X66957Y64800
X42143Y63800
X22457Y63800
T03
X21300Y26300
X31300Y26300
X41300Y26300
X61300Y26300
X71300Y26300
X81300Y26300
X99300Y26300
X109300Y26300
X119300Y26300
X144800Y26300
X154800Y26300
X164800Y26300
X42800Y100300
X32800Y100300
X22800Y100300
T04
X63800Y144300
X68800Y122300
X76300Y99300
X108800Y122300
X126300Y143800
X135800Y122300
X116300Y99300
X135800Y82300
X166300Y143800
X103800Y144300
T05
X32800Y159300
M30
