%
M48
M72
T01C0.03200
T02C0.03937
T03C0.04000
%
T01
X68300Y61300
X46300Y78300
X31300Y78300
X71300Y106300
X71300Y116300
X71300Y126300
X71300Y136300
X51300Y136300
X51300Y126300
X46300Y114300
X31300Y114300
X101300Y116300
X101300Y126300
X101300Y136300
X121300Y126300
X121300Y116300
X141300Y114300
X156300Y114300
X186300Y114300
X206300Y114300
X226300Y106300
X226300Y116300
X226300Y126300
X226300Y136300
X206300Y136300
X206300Y126300
X256300Y126300
X256300Y116300
X256300Y106300
X281300Y116300
X281300Y126300
X306300Y114300
X321300Y114300
X351300Y114300
X366300Y114300
X386300Y116300
X386300Y126300
X386300Y136300
X366300Y136300
X366300Y126300
X386300Y106300
X416300Y106300
X416300Y116300
X416300Y126300
X416300Y136300
X436300Y126300
X436300Y116300
X456300Y114300
X471300Y114300
X471300Y78300
X456300Y78300
X419300Y61300
X383300Y61300
X354300Y61300
X321300Y78300
X306300Y78300
X318300Y61300
X351300Y78300
X366300Y78300
X259300Y61300
X223300Y61300
X189300Y61300
X153300Y61300
X156300Y78300
X141300Y78300
X104300Y61300
X186300Y78300
X206300Y78300
X101300Y106300
X96300Y160300
X120910Y160400
X127910Y167400
X151300Y160800
X176300Y160300
X199650Y160400
X206650Y167400
X230800Y161300
X251300Y160300
X278391Y160400
X285391Y167400
X312300Y165800
X331300Y160300
X357131Y160400
X364131Y167400
X393300Y160300
X411300Y160300
X435871Y160400
X442871Y167400
X458300Y161300
X458300Y197300
X444331Y196300
X434331Y196300
X411300Y196300
X393300Y196300
X365631Y196300
X355631Y196300
X331300Y196300
X312300Y201800
X286891Y196300
X276891Y196300
X251300Y196300
X230800Y197300
X208150Y196300
X198150Y196300
X176300Y196300
X151300Y196800
X129410Y196300
X119410Y196300
X96300Y196300
X71300Y196800
X50670Y196300
X40670Y196300
X21300Y196300
X49170Y167400
X42170Y160400
X21300Y160300
X71300Y160800
X256300Y136300
X408300Y21300
X444300Y21300
T02
X336300Y76300
X336300Y111300
X216300Y106300
X216300Y81300
X264300Y166800
X263800Y206300
T03
X185800Y136300
X141300Y126300
X306300Y126300
X341300Y136300
X456300Y126300
X376300Y41300
X366300Y21300
X386300Y21300
X251300Y21300
X241300Y21300
X231300Y21300
X31300Y136300
M30
