%
M48
M72
T01C0.03200
T02C0.03543
T03C0.04000
T04C0.04724
%
T01
X37000Y89000
X47000Y89000
X57000Y89000
X67000Y89000
X77000Y89000
X87000Y89000
X97000Y89000
X107000Y89000
X117000Y89000
X117000Y119000
X107000Y119000
X97000Y119000
X87000Y119000
X77000Y119000
X67000Y119000
X57000Y119000
X47000Y119000
X37000Y119000
T02
X39500Y41000
X60000Y41000
X80500Y41500
X100000Y40500
X100000Y70500
X80500Y71500
X60000Y71000
X39500Y71000
T03
X51500Y21500
X61500Y21500
X71500Y21500
X81500Y21500
X91500Y21500
T04
X140500Y88500
X140500Y102280
X137280Y145500
X123500Y145500
X104780Y146500
X91000Y146500
X69780Y147000
X56000Y147000
X35280Y147500
X21500Y147500
M30
